<svg width="1100" height="620" viewBox="0 0 1100 620" fill="none" xmlns="http://www.w3.org/2000/svg">
  <rect width="1100" height="620" rx="24" fill="#F8FAFC"/>
  <rect x="36" y="32" width="1028" height="556" rx="20" fill="#FFFFFF" stroke="#CBD5E1"/>
  <text x="70" y="86" fill="#0F172A" font-family="Inter, Arial" font-size="28" font-weight="800">Personal AI Workflow Board</text>
  <text x="70" y="118" fill="#64748B" font-family="Inter, Arial" font-size="15">How AI tools are used as structured collaborators across real work tasks.</text>
  <g font-family="Inter, Arial">
    <rect x="70" y="158" width="186" height="330" rx="16" fill="#DBEAFE"/><text x="96" y="202" fill="#1E3A8A" font-size="18" font-weight="800">Plan</text><text x="96" y="244" fill="#1E40AF" font-size="14">Clarify goal</text><text x="96" y="274" fill="#1E40AF" font-size="14">Define output</text><text x="96" y="304" fill="#1E40AF" font-size="14">Set constraints</text>
    <rect x="286" y="158" width="186" height="330" rx="16" fill="#EDE9FE"/><text x="312" y="202" fill="#4C1D95" font-size="18" font-weight="800">Prompt</text><text x="312" y="244" fill="#5B21B6" font-size="14">Role framing</text><text x="312" y="274" fill="#5B21B6" font-size="14">Context</text><text x="312" y="304" fill="#5B21B6" font-size="14">Format</text>
    <rect x="502" y="158" width="186" height="330" rx="16" fill="#CCFBF1"/><text x="528" y="202" fill="#134E4A" font-size="18" font-weight="800">Create</text><text x="528" y="244" fill="#0F766E" font-size="14">Draft</text><text x="528" y="274" fill="#0F766E" font-size="14">Prototype</text><text x="528" y="304" fill="#0F766E" font-size="14">Analyze</text>
    <rect x="718" y="158" width="186" height="330" rx="16" fill="#FEF3C7"/><text x="744" y="202" fill="#92400E" font-size="18" font-weight="800">Validate</text><text x="744" y="244" fill="#B45309" font-size="14">Check facts</text><text x="744" y="274" fill="#B45309" font-size="14">Check data</text><text x="744" y="304" fill="#B45309" font-size="14">Revise tone</text>
    <rect x="934" y="158" width="90" height="330" rx="16" fill="#DCFCE7"/><text x="956" y="202" fill="#166534" font-size="18" font-weight="800">Ship</text>
  </g>
</svg>
